<svg width="500" height="500" viewBox="0 0 500 500" fill="none" xmlns="http://www.w3.org/2000/svg">
<rect width="500" height="500" fill="#F0F0F0"/>
<path fill-rule="evenodd" clip-rule="evenodd" d="M270.827 257.887L326.517 202.437L315.543 191.451C305.179 181.092 288.209 181.092 277.845 191.451L249.191 220.107L221.258 191.451C210.879 181.092 193.922 181.092 183.552 191.451L172.57 202.445L248.831 279.037L249.207 279.413L249.23 279.436L270.827 257.887Z" fill="#21498A"/>
<path fill-rule="evenodd" clip-rule="evenodd" d="M369.09 244.776L358.12 233.801C347.744 223.422 330.777 223.422 320.412 233.801L249.351 304.849L178.68 234.178C168.311 223.798 151.345 223.798 140.981 234.178L130 245.151L249.351 364.515L249.376 364.499L369.09 244.776Z" fill="#21498A"/>
<path fill-rule="evenodd" clip-rule="evenodd" d="M231.892 143.313C241.643 133.562 257.452 133.562 267.196 143.313C276.946 153.067 276.946 168.875 267.196 178.625C257.452 188.375 241.643 188.375 231.892 178.625C222.142 168.875 222.142 153.067 231.892 143.313Z" fill="#FCBA00"/>
</svg>
