<svg width="500" height="500" viewBox="0 0 500 500" fill="none" xmlns="http://www.w3.org/2000/svg">
<rect width="500" height="500" fill="#F0F0F0"/>
<path fill-rule="evenodd" clip-rule="evenodd" d="M299.656 151.037L348.988 151.046L348.996 231.23L268.89 231.221V213.149L313.141 168.867L315.302 166.7L299.656 151.037Z" fill="#007658"/>
<path fill-rule="evenodd" clip-rule="evenodd" d="M249.994 110L306.642 166.702L249.999 223.38L237.238 210.609L237.23 144.917H215.124L249.994 110Z" fill="#0097D1"/>
<path fill-rule="evenodd" clip-rule="evenodd" d="M151.009 151.037V200.42L164.482 186.94L166.647 184.773L213.041 231.226H231.119L231.111 151.042L151.009 151.037Z" fill="#007658"/>
<path fill-rule="evenodd" clip-rule="evenodd" d="M110 250.134L166.646 193.443L223.289 250.142L210.517 262.921H144.886V285.056L110 250.134Z" fill="#0097D1"/>
<path fill-rule="evenodd" clip-rule="evenodd" d="M151.009 349.229V269.041H231.111L231.119 287.126L186.876 331.413L184.717 333.575L186.88 335.742L200.345 349.221L151.009 349.229Z" fill="#007658"/>
<path fill-rule="evenodd" clip-rule="evenodd" d="M250.015 390.272L193.365 333.574L250.011 276.875L262.764 289.65V355.358H284.902L250.015 390.272Z" fill="#0097D1"/>
<path fill-rule="evenodd" clip-rule="evenodd" d="M348.993 349.227L268.878 349.219V269.044L286.953 269.035L331.196 313.322L333.354 315.488L335.521 313.322L348.985 299.842L348.993 349.227Z" fill="#007658"/>
<path fill-rule="evenodd" clip-rule="evenodd" d="M333.357 306.83L276.731 250.141L289.501 237.353H355.114V215.223L390 250.145L333.357 306.83Z" fill="#0097D1"/>
</svg>
